# xmcd CD database file
# Copyright (C) 1993-1998 Ti Kan
# 
# Track frame offsets:
#     150
#     16887
#     37090
#     57660
#     81377
#     95787
#     116425
#     136572
#     153430
#     172187
#     186915
#     191415
# 
# Disc length: 2750 seconds
# 
# Revision: 1
# Processed by: cddbd v1.4b41PL1 Copyright (c) Steve Scherf et al.
# Submitted via: DiscPlay 4.0.4
# 
DISCID=a40abc0c
DTITLE=The Cold Club - The Cold Club
DYEAR=1900
DGENRE=
TTITLE0=Nagasaki
TTITLE1=Another French Waltz/Petite Waltz
TTITLE2=Money Is King
TTITLE3=The Dog Song
TTITLE4=Say That You Were Teasin' Me
TTITLE5=Monsoon
TTITLE6=Nine Feathered Masks
TTITLE7=Happy Talk
TTITLE8=Jitterbug Waltz
TTITLE9=Hey Buddy (Children's Version)
TTITLE10=One Minute Of Silence
TTITLE11=Hey Buddy (Adult Version)
EXTD=
EXTT0=
EXTT1=
EXTT2=
EXTT3=
EXTT4=
EXTT5=
EXTT6=
EXTT7=
EXTT8=
EXTT9=
EXTT10=
EXTT11=
PLAYORDER=
